<?xml version="1.0" encoding="UTF-8"?>
<svg width="40px" height="40px" viewBox="0 0 40 40" version="1.1" xmlns="http://www.w3.org/2000/svg" xmlns:xlink="http://www.w3.org/1999/xlink">
    <!-- Generator: Sketch 52.6 (67491) - http://www.bohemiancoding.com/sketch -->
    <title>ava</title>
    <desc>Created with Sketch.</desc>
    <g id="Symbols" stroke="none" stroke-width="1" fill="none" fill-rule="evenodd">
        <g id="ava-2" fill="#B8C5D3" fill-rule="nonzero">
            <g id="ava">
                <path d="M20,0 C8.95422222,0 0,8.95422222 0,20 C0,31.0457778 8.95422222,40 20,40 C31.0457778,40 40,31.0457778 40,20 C40,8.95422222 31.0457778,0 20,0 Z M19.9995556,9.19244444 C22.9751111,9.19244444 25.3951111,12.0795556 25.3951111,15.628 C25.3951111,19.1764444 22.9751111,22.0635556 19.9995556,22.0635556 C17.024,22.0635556 14.604,19.1764444 14.604,15.628 C14.604,12.0795556 17.0244444,9.19244444 19.9995556,9.19244444 Z M30.9564444,29.9431111 L30.8817778,30.8075556 C28.9605926,33.6025185 25.3333333,35 20,35 C14.6666667,35 11.0392593,33.6025185 9.11777778,30.8075556 L9.04311111,29.9431111 C9.02844444,29.7755556 9.012,29.5 9.01466667,29.332 C9.05911111,26.5551111 10.7813333,24.096 13.4133333,22.5391111 C13.8711111,22.2684444 14.4488889,22.3875556 14.8057778,22.7813333 C15.0031111,22.9991111 15.2111111,23.2035556 15.4284444,23.3955556 C16.6244444,24.4515556 18.1164444,25.0871111 19.7395556,25.0871111 C21.4382222,25.0871111 22.9986667,24.3968889 24.2204444,23.2497778 C24.432,23.0515556 24.632,22.8382222 24.8204444,22.6124444 C25.1622222,22.2035556 25.7368889,22.064 26.2057778,22.3173333 C29.0888889,23.8768889 30.9853333,26.4871111 30.9853333,29.4422222 C30.9857778,29.6115556 30.972,29.7773333 30.9564444,29.9431111 Z" id="Shape"></path>
            </g>
        </g>
    </g>
</svg>