<?xml version="1.0" encoding="UTF-8"?>
<svg  viewBox="0 0 106 29" version="1.1" xmlns="http://www.w3.org/2000/svg" xmlns:xlink="http://www.w3.org/1999/xlink">
    <!-- Generator: Sketch 52.5 (67469) - http://www.bohemiancoding.com/sketch -->
    <title>logo</title>
    <desc>Created with Sketch.</desc>
    <defs>
        <linearGradient x1="23.0635681%" y1="89.7973126%" x2="106.220228%" y2="0%" id="linearGradient-1">
            <stop stop-color="#1076BE" offset="0%"></stop>
            <stop stop-color="#26B3F0" offset="100%"></stop>
        </linearGradient>
    </defs>
    <g id="Symbols" stroke="none" stroke-width="1" fill="none" fill-rule="evenodd">
        <g id="logo">
            <path d="M28.3448243,22.1753029 C28.0447208,22.1753029 27.7446174,22.0522328 27.5334334,21.8284691 C27.3222495,21.6158936 27.2111001,21.3473772 27.2111001,21.0452962 C27.2111001,20.9110379 27.2444449,20.7655915 27.3000196,20.6089569 L30.9901807,12.2513825 C31.1680197,11.8374197 31.5792726,11.5689032 32.0238703,11.5689032 C32.479583,11.5689032 32.8908359,11.8150433 33.068675,12.2513825 L36.747721,20.6089569 C36.8144107,20.7544034 36.8477555,20.8998498 36.8477555,21.0564844 C36.8477555,21.1907426 36.8144107,21.3250008 36.758836,21.4704472 C36.6365716,21.7501518 36.4365026,21.9627274 36.1586291,22.0857974 C36.0030199,22.1417383 35.8585256,22.1753029 35.7251463,22.1753029 C35.4472727,22.1753029 35.191629,22.063421 34.9582152,21.8508455 C34.8470658,21.7501518 34.7581463,21.6270818 34.6914566,21.4816354 L32.0349853,14.8246652 L29.367399,21.4816354 C29.2451346,21.7837164 29.0450657,21.9851037 28.7671921,22.0969856 C28.6449277,22.1529265 28.5004335,22.1753029 28.3448243,22.1753029 Z M42.1751908,22.2648084 C40.7413632,22.2648084 39.40757,21.6830227 38.429455,20.6984624 C37.4402251,19.7027139 36.8733631,18.3713199 36.8733631,16.928044 C36.8733631,15.4847681 37.4402251,14.153374 38.429455,13.1576255 C39.40757,12.1730652 40.7413632,11.5912796 42.1751908,11.5912796 C43.6090184,11.5912796 44.9428115,12.1730652 45.9209265,13.1576255 C46.8990415,14.153374 47.4659036,15.4847681 47.4659036,16.928044 C47.4659036,18.3713199 46.8990415,19.7027139 45.9209265,20.6984624 C44.9428115,21.6830227 43.6090184,22.2648084 42.1751908,22.2648084 Z M42.1751908,20.0271713 C43.0199264,20.0271713 43.7979724,19.6803376 44.3648345,19.1097401 C44.9316966,18.5391427 45.2540299,17.7671579 45.2540299,16.928044 C45.2540299,16.0777419 44.9316966,15.3057571 44.3648345,14.7351597 C43.7979724,14.1645622 43.0199264,13.8401048 42.1751908,13.8401048 C41.3415701,13.8401048 40.574639,14.1645622 40.0077769,14.7351597 C39.4297999,15.3169453 39.0963516,16.0889301 39.0963516,16.928044 C39.0963516,17.7671579 39.4409148,18.5391427 40.0077769,19.1097401 C40.574639,19.6803376 41.3415701,20.0271713 42.1751908,20.0271713 Z M56.4571285,22.1417383 C56.1459101,22.1417383 55.8791515,22.0186683 55.6568526,21.7837164 L51.9222318,17.8007224 L51.110841,18.5727072 L51.110841,21.0117316 C51.110841,21.336189 51.0108065,21.5935172 50.7996226,21.8060928 C50.5884387,22.0186683 50.3216801,22.1305501 50.0215766,22.1305501 C49.7103582,22.1305501 49.4435996,22.0186683 49.2324157,21.8060928 C49.0101168,21.5823291 48.8989674,21.3138126 48.8989674,21.0117316 L48.8989674,12.7100981 C48.8989674,12.3856408 49.0101168,12.1283125 49.2324157,11.915737 C49.4658295,11.7031615 49.7214731,11.5912796 50.0215766,11.5912796 C50.6440134,11.5912796 51.110841,12.0835598 51.110841,12.7100981 L51.110841,15.5071445 L55.2567147,11.6024678 C55.4678986,11.3898923 55.7457721,11.2891986 56.0681055,11.2891986 C56.3682089,11.3003868 56.6238526,11.4234568 56.8461515,11.6472205 C57.0351055,11.8374197 57.1240251,12.0947479 57.1240251,12.3968289 C57.1240251,12.7100981 57.0017607,13.000991 56.7683469,13.2247547 L53.5338985,16.2791292 L57.2685193,20.250935 C57.4797032,20.4635105 57.5908527,20.732027 57.5908527,21.0452962 C57.5797377,21.3473772 57.4574733,21.6158936 57.2462894,21.8284691 C57.0351055,22.0410447 56.7683469,22.1417383 56.4571285,22.1417383 Z M60.0250234,22.1305501 C59.7249199,22.1305501 59.4581613,22.0186683 59.2247475,21.7949046 C59.0024487,21.5823291 58.8912992,21.3250008 58.8912992,21.0005434 L58.8912992,12.7436627 C58.8912992,12.4192053 59.0024487,12.1395007 59.2358625,11.9269252 C59.4581613,11.7031615 59.7249199,11.5912796 60.0472533,11.5912796 C60.6585751,11.5912796 61.1031729,12.1059361 61.1031729,12.7436627 L61.1031729,15.663779 L65.8714833,15.663779 L65.8714833,12.7436627 C65.8714833,12.1059361 66.327196,11.5912796 66.9496328,11.5912796 C67.2719661,11.5912796 67.5387247,11.7031615 67.7610236,11.9269252 C67.9833225,12.1506889 68.0944719,12.4192053 68.0944719,12.7436627 L68.0944719,21.0005434 C68.0944719,21.3250008 67.9833225,21.5823291 67.7610236,21.7949046 C67.5164949,22.0186683 67.2497362,22.1305501 66.9496328,22.1305501 C66.327196,22.1305501 65.8714833,21.63827 65.8714833,21.0005434 L65.8714833,17.957357 L61.1031729,17.957357 L61.1031729,21.0005434 C61.1031729,21.63827 60.6474602,22.1305501 60.0250234,22.1305501 Z M74.502127,22.2648084 C73.0682993,22.2648084 71.7345062,21.6830227 70.7563912,20.6984624 C69.7671613,19.7027139 69.2002992,18.3713199 69.2002992,16.928044 C69.2002992,15.4847681 69.7671613,14.153374 70.7563912,13.1576255 C71.7345062,12.1730652 73.0682993,11.5912796 74.502127,11.5912796 C75.9359546,11.5912796 77.2697477,12.1730652 78.2478627,13.1576255 C79.2259777,14.153374 79.7928397,15.4847681 79.7928397,16.928044 C79.7928397,18.3713199 79.2259777,19.7027139 78.2478627,20.6984624 C77.2697477,21.6830227 75.9359546,22.2648084 74.502127,22.2648084 Z M74.502127,20.0271713 C75.3468626,20.0271713 76.1249086,19.6803376 76.6917707,19.1097401 C77.2586328,18.5391427 77.5809661,17.7671579 77.5809661,16.928044 C77.5809661,16.0777419 77.2586328,15.3057571 76.6917707,14.7351597 C76.1249086,14.1645622 75.3468626,13.8401048 74.502127,13.8401048 C73.6685063,13.8401048 72.9015752,14.1645622 72.3347131,14.7351597 C71.7567361,15.3169453 71.4232878,16.0889301 71.4232878,16.928044 C71.4232878,17.7671579 71.767851,18.5391427 72.3347131,19.1097401 C72.9015752,19.6803376 73.6685063,20.0271713 74.502127,20.0271713 Z M84.7708084,22.1305501 C84.1483716,22.1305501 83.692659,21.63827 83.692659,21.0005434 L83.692659,13.8289167 L80.6471646,13.8177285 C80.0136129,13.8177285 79.5245554,13.3702011 79.5245554,12.7436627 C79.5245554,12.0835598 80.0136129,11.5912796 80.6471646,11.5912796 L88.8611074,11.5912796 C89.1834407,11.5912796 89.4501993,11.7031615 89.6724982,11.9269252 C89.8947971,12.1506889 90.0059465,12.4192053 90.0059465,12.7436627 C90.0059465,13.3702011 89.4946591,13.8289167 88.8611074,13.8289167 L85.9045326,13.8289167 L85.9045326,21.0005434 C85.9045326,21.3250008 85.7933832,21.5823291 85.5710843,21.7949046 C85.3376705,22.0186683 85.0709119,22.1305501 84.7708084,22.1305501 Z" id="локнот" stroke="#188CD0" stroke-width="0.5" fill="#188CD0"></path>
            <path d="M97.4293589,22.0557491 L91.9939706,22.0557491 C91.7514687,22.0557491 91.5507774,21.9721579 91.3918969,21.7966163 C91.2330163,21.6210747 91.1493949,21.4204558 91.1577571,21.1864003 L91.1577571,21.1111682 C91.1577571,21.0860909 91.1577571,21.0610135 91.1661192,21.0442952 C91.1828435,20.9105493 91.2413784,20.7935215 91.3333619,20.6848529 L91.3918969,20.6263391 L95.4140842,16.3464681 L95.4224463,16.3381089 L95.4726191,16.2795951 C95.7652939,15.9703075 95.9827094,15.7028156 96.1248657,15.4938375 C96.3840919,15.1009587 96.5178861,14.7415164 96.5178861,14.4322289 C96.5178861,13.964118 96.325557,13.554521 95.9910715,13.287029 C95.6649482,13.0195371 95.2384793,12.8690729 94.7785618,12.8690729 C94.3437308,12.8690729 93.9339861,13.0028188 93.6245871,13.2368743 C93.2984638,13.4792889 93.0810483,13.8220129 93.0141512,14.2232508 C93.0141512,14.2650464 93.0141512,14.2984829 93.0057891,14.3152012 C92.9138056,14.7749529 92.6127687,15.0090084 92.2113862,15.0090084 C91.7012959,15.0090084 91.400259,14.6830026 91.400259,14.2065326 C91.400259,14.1396596 91.400259,14.0895048 91.4086211,14.0477092 C91.4504318,13.3873385 91.8183658,12.7102495 92.3953532,12.1752657 C92.9974269,11.6319227 93.8169162,11.2891986 94.7534754,11.2891986 C95.7485696,11.2891986 96.6015074,11.5734088 97.2035812,12.1000335 C97.8140171,12.6433765 98.1652268,13.420775 98.1652268,14.3486377 C98.1652268,14.8836215 98.0481569,15.393528 97.8223793,15.8867163 C97.5798773,16.3882637 97.1952191,16.9065293 96.6684045,17.4415132 L93.800192,20.3922836 L97.4293589,20.3922836 C97.9060006,20.3922836 98.2739346,20.7433668 98.2739346,21.2114777 C98.2739346,21.6879477 97.9060006,22.0557491 97.4293589,22.0557491 Z M105.365834,18.4351565 C105.524732,18.6016206 105.6,18.8013774 105.6,19.0261038 C105.6,19.4922031 105.240387,19.858424 104.772054,19.858424 L104.036102,19.858424 L104.036102,21.223429 C104.036102,21.6895283 103.684853,22.0557491 103.21652,22.0557491 C102.990716,22.0557491 102.790002,21.9725171 102.622741,21.8060531 C102.455479,21.6395891 102.371848,21.4481554 102.371848,21.223429 L102.371848,19.858424 L99.1186065,19.858424 C98.8928031,19.858424 98.692089,19.775192 98.5248272,19.6087279 C98.3575655,19.4422639 98.2739346,19.2508303 98.2739346,19.0261038 L98.2739346,18.992811 C98.2739346,18.8346702 98.31575,18.6848526 98.407744,18.5433582 L102.472205,11.7932419 C102.639467,11.5352226 102.898722,11.3937282 103.174704,11.3937282 C103.408871,11.3937282 103.643037,11.4852834 103.801936,11.6434243 C103.944109,11.7849187 104.036102,12.0179683 104.036102,12.251018 L104.036102,18.1854605 L104.772054,18.1854605 C105.014584,18.1854605 105.206935,18.2686925 105.365834,18.4351565 Z M102.3556,18.1881533 L102.3556,15.0522648 L100.367096,18.1881533 L102.3556,18.1881533 Z" id="24" stroke="#FF5500" stroke-width="0.5" fill="#FF5500"></path>
            <path d="M32.5749232,7.07400781 C32.8206627,7.38534749 32.9672944,7.77835839 32.9672944,8.20557491 C32.9672944,9.21585189 32.1472965,10.0348432 31.135778,10.0348432 C30.334733,10.0348432 29.6537988,9.52121907 29.4051075,8.80571991 C27.5719264,5.72393329 24.2054573,3.65853659 20.355996,3.65853659 C15.8827294,3.65853659 12.0616761,6.44756638 10.5409462,10.3795388 C11.1128733,10.6299827 11.5123885,11.2004485 11.5123885,11.8641115 C11.5123885,12.7589283 10.7861047,13.4843206 9.89018831,13.4843206 C9.87994418,13.4843206 9.86972224,13.4842257 9.8595233,13.4840369 C9.85229254,13.484338 9.84507835,13.4843206 9.83785927,13.4843206 C9.62854311,13.4843206 9.35126211,13.4843206 9.15758176,13.4843206 C6.06522505,13.4843206 3.55837463,15.988094 3.55837463,19.0766551 C3.55837463,22.1652161 6.06522505,24.6689895 9.15758176,24.6689895 C9.73978222,24.6689895 10.3012289,24.5802411 10.8290998,24.4155503 C10.8482147,24.4095866 10.7851656,24.3595222 10.6751239,24.2508711 C10.5171026,24.0948466 10.2653009,23.8415512 10.0471754,23.6236934 C9.89018831,23.466899 9.62854311,23.1533101 9.471556,22.9442509 C9.42316967,22.879815 9.35096298,22.7882191 9.26930049,22.6853948 C9.08601292,22.4546107 8.85509116,22.167263 8.73894945,22.0034843 C8.23460513,21.2922768 7.95118118,20.8573214 7.79702676,20.4878049 C7.79568113,20.4845793 7.79435718,20.481363 7.7930548,20.4781559 C7.69470308,20.2575292 7.64003964,20.0131892 7.64003964,19.7560976 C7.64003964,18.7746856 8.43660894,17.9790941 9.41922696,17.9790941 C10.180673,17.9790941 10.8303978,18.4568421 11.0843065,19.1285921 C11.7237789,20.3173649 12.5857444,21.3689801 13.6145624,22.2278653 C13.6708313,22.2882853 13.7079382,22.3199406 13.7210822,22.3156171 C15.5310432,23.7869463 17.8403869,24.6689895 20.355996,24.6689895 C21.8820633,24.6689895 23.3322226,24.3443877 24.6410354,23.7605422 C24.955532,23.4803746 25.3702928,23.3101045 25.8248712,23.3101045 C26.8074892,23.3101045 27.6040585,24.1056961 27.6040585,25.087108 C27.6040585,25.8895138 27.0715716,26.5677032 26.3402764,26.7884072 C24.5241888,27.6415786 22.4958525,28.1184669 20.355996,28.1184669 C18.0719069,28.1184669 15.9148781,27.5751247 14.0074103,26.6107906 C12.5611927,27.6265974 10.7982985,28.2229965 8.89593657,28.2229965 C3.98284647,28.2229965 0,24.2450387 0,19.3379791 C0,15.1964458 2.83709062,11.7167372 6.67604495,10.7318276 C8.17246121,4.57312422 13.7295171,0 20.355996,0 C25.5846178,0 30.1474172,2.8472251 32.5749232,7.07400781 Z" id="Combined-Shape" fill="url(#linearGradient-1)"></path>
            <path d="M21.6232902,22.1602787 L17.3291227,22.1602787 C16.6585267,22.1602787 16.1173439,21.6356707 16.1173439,20.9560649 L16.1173439,8.12701437 C16.1173439,7.70971254 16.3291111,7.34010235 16.6702915,7.10164416 C16.6938212,7.07779834 16.7408806,7.05395253 16.8232344,7.0181838 L16.8820587,6.99433798 C16.9997071,6.94664634 17.1291204,6.91087761 17.2820633,6.8989547 L23.7762563,6.8989547 C24.1056719,6.8989547 24.4115578,7.0181838 24.6350898,7.24471908 C24.8586218,7.47125436 24.9762702,7.75740418 24.9762702,8.09124564 C24.9762702,8.75892857 24.4468523,9.27161368 23.7762563,9.27161368 L18.4703124,9.27161368 L18.4703124,13.0750218 L21.6232902,13.0630989 C22.8821283,13.0630989 23.9997883,13.5519382 24.846857,14.4103876 C25.6821608,15.2569142 26.1645193,16.4134364 26.1645193,17.6653419 C26.1645193,18.9172474 25.6821608,20.0380009 24.846857,20.8606816 C24.0115532,21.6833624 22.8821283,22.1602787 21.6232902,22.1602787 Z M18.4703124,19.7876198 L21.6115253,19.7876198 C22.2232971,19.7876198 22.7762447,19.5491616 23.1880142,19.1199368 C23.6115485,18.6787892 23.8233157,18.1422583 23.8233157,17.5341899 C23.8233157,16.9141986 23.5880188,16.341899 23.1762494,15.9245971 C22.7644799,15.5072953 22.1997674,15.28076 21.5879956,15.28076 L18.4703124,15.28076 L18.4703124,19.7876198 Z" id="Б" stroke="#1585CA" stroke-width="0.5" fill="#1585CA"></path>
        </g>
    </g>
</svg>
