<?xml version="1.0" encoding="UTF-8"?>
<svg width="33px" height="22px" viewBox="0 0 33 22" version="1.1" xmlns="http://www.w3.org/2000/svg" xmlns:xlink="http://www.w3.org/1999/xlink">
    <!-- Generator: Sketch 52.5 (67469) - http://www.bohemiancoding.com/sketch -->
    <title>logo</title>
    <desc>Created with Sketch.</desc>
    <defs>
        <linearGradient x1="23.0635681%" y1="89.7973126%" x2="106.220228%" y2="0%" id="linearGradient-1">
            <stop stop-color="#1076BE" offset="0%"></stop>
            <stop stop-color="#26B3F0" offset="100%"></stop>
        </linearGradient>
    </defs>
    <g id="Symbols" stroke="none" stroke-width="1" fill="none" fill-rule="evenodd">
        <g id="logo">
            <path d="M25.7582006,17.167728 L21.6348026,17.167728 C21.4508357,17.167728 21.2985871,17.1043139 21.178057,16.9711445 C21.0575269,16.837975 20.99409,16.6857813 21.0004337,16.508222 L21.0004337,16.4511494 C21.0004337,16.4321252 21.0004337,16.4131009 21.0067774,16.4004181 C21.0194648,16.2989557 21.0638706,16.210176 21.1336512,16.1277378 L21.178057,16.0833479 L24.2293715,12.8365492 L24.2357152,12.8302078 L24.2737773,12.785818 C24.4958065,12.5511861 24.6607424,12.3482612 24.7685851,12.1897261 C24.9652395,11.8916801 25.0667385,11.6189997 25.0667385,11.3843678 C25.0667385,11.0292492 24.9208336,10.7185204 24.6670861,10.5155955 C24.4196822,10.3126706 24.0961541,10.1985253 23.7472511,10.1985253 C23.4173793,10.1985253 23.1065385,10.2999878 22.871822,10.4775471 C22.6244182,10.6614478 22.4594822,10.9214453 22.4087327,11.2258327 C22.4087327,11.2575397 22.4087327,11.2829053 22.402389,11.2955881 C22.3326085,11.6443653 22.1042356,11.8219247 21.7997386,11.8219247 C21.4127735,11.8219247 21.1844007,11.5746099 21.1844007,11.2131499 C21.1844007,11.1624187 21.1844007,11.1243702 21.1907444,11.0926632 C21.2224628,10.5916923 21.5015852,10.0780386 21.9392997,9.67218879 C22.3960453,9.25999755 23.0177269,9 23.7282201,9 C24.4831191,9 25.1301754,9.21560773 25.586921,9.61511616 C26.0500103,10.0273074 26.3164453,10.6170579 26.3164453,11.3209538 C26.3164453,11.7268036 26.2276336,12.1136292 26.056354,12.487772 C25.872387,12.8682563 25.5805773,13.2614233 25.1809249,13.6672731 L23.0050395,15.9057886 L25.7582006,15.9057886 C26.1197909,15.9057886 26.3989132,16.1721276 26.3989132,16.5272462 C26.3989132,16.8887062 26.1197909,17.167728 25.7582006,17.167728 Z M31.7789745,14.4210715 C31.8995183,14.5473546 31.956618,14.6988943 31.956618,14.8693764 C31.956618,15.2229689 31.6838083,15.5007917 31.3285212,15.5007917 L30.770213,15.5007917 L30.770213,16.5363127 C30.770213,16.8899053 30.5037477,17.167728 30.1484606,17.167728 C29.9771615,17.167728 29.8248956,17.1045865 29.6980074,16.9783034 C29.5711192,16.8520203 29.507675,16.7067948 29.507675,16.5363127 L29.507675,15.5007917 L27.0396988,15.5007917 C26.8683997,15.5007917 26.7161338,15.4376501 26.5892456,15.3113671 C26.4623573,15.185084 26.3989132,15.0398585 26.3989132,14.8693764 L26.3989132,14.8441198 C26.3989132,14.7241509 26.4306353,14.6104961 26.5004238,14.5031555 L29.583808,9.38237766 C29.7106962,9.18663893 29.907373,9.07929833 30.1167386,9.07929833 C30.2943821,9.07929833 30.4720256,9.14875401 30.5925695,9.26872291 C30.7004245,9.37606351 30.770213,9.55285979 30.770213,9.72965606 L30.770213,14.231647 L31.3285212,14.231647 C31.5125092,14.231647 31.6584307,14.2947885 31.7789745,14.4210715 Z M29.4953488,14.2336898 L29.4953488,11.8547399 L27.9868289,14.2336898 L29.4953488,14.2336898 Z" id="24" stroke="#FF5500" stroke-width="0.5" fill="#FF5500"></path>
            <path d="M24.7120107,5.36648868 C24.8984337,5.60267741 25.0096716,5.9008236 25.0096716,6.2249189 C25.0096716,6.99133592 24.3876043,7.61263967 23.6202454,7.61263967 C23.0125561,7.61263967 22.4959853,7.22299378 22.307323,6.68020131 C20.9166338,4.34229422 18.3627607,2.77544155 15.4424798,2.77544155 C12.0489671,2.77544155 9.15023703,4.89125725 7.99657987,7.87413292 C8.43045559,8.06412484 8.73353611,8.49689196 8.73353611,9.00036045 C8.73353611,9.67918695 8.18256221,10.2294846 7.50290147,10.2294846 C7.49513007,10.2294846 7.48737549,10.2294126 7.47963837,10.2292694 C7.47415296,10.2294978 7.46868013,10.2294846 7.46320358,10.2294846 C7.30441202,10.2294846 7.09406091,10.2294846 6.94713099,10.2294846 C4.60120521,10.2294846 2.69945661,12.1288989 2.69945661,14.4719452 C2.69945661,16.8149915 4.60120521,18.7144059 6.94713099,18.7144059 C7.38880031,18.7144059 7.81472536,18.6470794 8.21517917,18.5221416 C8.22968014,18.5176174 8.18184975,18.4796376 8.09836984,18.3972125 C7.97849165,18.2788492 7.78746968,18.086694 7.62199515,17.9214226 C7.50290147,17.8024751 7.30441202,17.5645801 7.18531834,17.4059834 C7.14861148,17.357101 7.09383398,17.2876145 7.03188313,17.2096099 C6.89283739,17.0345322 6.71765537,16.8165444 6.62954786,16.6922985 C6.24694182,16.1527617 6.03193055,15.8227955 5.91498582,15.5424727 C5.913965,15.5400257 5.91296062,15.5375857 5.91197261,15.5351528 C5.83736096,15.3677808 5.79589214,15.1824194 5.79589214,14.9873844 C5.79589214,14.242865 6.40018609,13.6393127 7.14562045,13.6393127 C7.72326914,13.6393127 8.21616385,14.0017423 8.40878427,14.5113457 C8.89390126,15.4131734 9.5478061,16.2109504 10.3282887,16.8625185 C10.3709755,16.9083543 10.3991255,16.9323688 10.4090968,16.9290888 C11.7821707,18.0452696 13.5340866,18.7144059 15.4424798,18.7144059 C16.600186,18.7144059 17.7003068,18.4681562 18.6931993,18.0252389 C18.9317829,17.812698 19.246429,17.6835276 19.5912816,17.6835276 C20.336716,17.6835276 20.9410099,18.2870798 20.9410099,19.0315992 C20.9410099,19.6403208 20.5370543,20.1548093 19.9822786,20.3222399 C18.6045571,20.9694734 17.0658191,21.3312508 15.4424798,21.3312508 C13.7097225,21.3312508 12.0733558,20.9190601 10.6263113,20.1874963 C9.52918065,20.9581084 8.19181262,21.4105491 6.74864154,21.4105491 C3.02146973,21.4105491 0,18.392788 0,14.670191 C0,11.5283382 2.15227564,8.88855926 5.06458582,8.14138642 C6.19979816,3.46926665 10.4154957,0 15.4424798,0 C19.4090204,0 22.8704544,2.15996387 24.7120107,5.36648868 Z" id="Combined-Shape" fill="url(#linearGradient-1)"></path>
            <path d="M16.4038753,16.8112459 L13.146231,16.8112459 C12.637503,16.8112459 12.2269505,16.4132675 12.2269505,15.8977044 L12.2269505,6.16532125 C12.2269505,5.84874745 12.3876015,5.56835351 12.646428,5.38745419 C12.6642781,5.36936426 12.6999784,5.35127433 12.7624537,5.32413943 L12.807079,5.3060495 C12.8963295,5.26986964 12.9945051,5.24273474 13.1105308,5.23368978 L18.03716,5.23368978 C18.2870614,5.23368978 18.5191128,5.32413943 18.6886888,5.49599378 C18.8582648,5.66784813 18.9475154,5.88492731 18.9475154,6.13818635 C18.9475154,6.64470443 18.545888,7.03363796 18.03716,7.03363796 L14.0119611,7.03363796 L14.0119611,9.91898204 L16.4038753,9.90993707 C17.3588559,9.90993707 18.206736,10.2807807 18.8493398,10.9320182 C19.4830185,11.5742108 19.8489457,12.4515724 19.8489457,13.4012939 C19.8489457,14.3510153 19.4830185,15.201242 18.8493398,15.8253447 C18.215661,16.4494473 17.3588559,16.8112459 16.4038753,16.8112459 Z M14.0119611,15.0112978 L16.3949502,15.0112978 C16.859053,15.0112978 17.2785305,14.8303984 17.5909073,14.5047797 C17.9122092,14.1701159 18.0728602,13.7630925 18.0728602,13.3017992 C18.0728602,12.831461 17.8943591,12.3973027 17.5819823,12.0807289 C17.2696054,11.7641551 16.8412029,11.5923007 16.3771001,11.5923007 L14.0119611,11.5923007 L14.0119611,15.0112978 Z" id="Б" stroke="#1585CA" stroke-width="0.5" fill="#1585CA"></path>
        </g>
    </g>
</svg>