<svg xmlns="http://www.w3.org/2000/svg" xmlns:xlink="http://www.w3.org/1999/xlink" width="227px" height="62px" version="1.1" id="Слой_1" x="0px" y="0px" viewBox="0 0 534 150" style="enable-background:new 0 0 534 150;" xml:space="preserve">
<style type="text/css">
  .st0{clip-path:url(#SVGID_2_);fill:#FFFFFF;}
  .st1{fill:none;stroke:#FFFFFF;stroke-width:3;stroke-miterlimit:10;}
  .st2{clip-path:url(#SVGID_4_);fill:#FF5500;}
  .st3{fill:none;stroke:#FF5500;stroke-width:3;stroke-miterlimit:10;}
  .st4{clip-path:url(#SVGID_6_);fill:#FFFFFF;}
  .st5{clip-path:url(#SVGID_8_);fill:#FFFFFF;}
</style>
<g>
  <defs>
    <path id="SVGID_1_" d="M423.9,110.7c-3.1,0-5.4-2.5-5.4-5.7V69.1l-15.2-0.1c-3.2,0-5.6-2.2-5.6-5.4c0-3.3,2.4-5.8,5.6-5.8h41.1    c1.6,0,2.9,0.6,4.1,1.7c1.1,1.1,1.7,2.5,1.7,4.1c0,3.1-2.6,5.4-5.7,5.4h-14.8V105c0,1.6-0.6,2.9-1.7,4    C426.7,110.1,425.4,110.7,423.9,110.7z M372.5,100.1c4.2,0,8.1-1.7,10.9-4.6c2.8-2.9,4.4-6.7,4.4-10.9c0-4.3-1.6-8.1-4.4-11    c-2.8-2.9-6.7-4.5-10.9-4.5c-4.2,0-8,1.6-10.8,4.5c-2.9,2.9-4.6,6.8-4.6,11c0,4.2,1.7,8.1,4.6,10.9    C364.5,98.4,368.3,100.1,372.5,100.1z M372.5,111.3c-7.2,0-13.8-2.9-18.7-7.8c-4.9-5-7.8-11.6-7.8-18.9s2.8-13.9,7.8-18.9    c4.9-4.9,11.6-7.8,18.7-7.8c7.2,0,13.8,2.9,18.7,7.8c4.9,5,7.7,11.6,7.7,18.9s-2.8,13.9-7.7,18.9    C386.3,108.4,379.7,111.3,372.5,111.3z M300.1,110.7c-1.5,0-2.8-0.6-4-1.7c-1.1-1.1-1.7-2.3-1.7-4V63.7c0-1.6,0.6-3,1.7-4.1    c1.1-1.1,2.4-1.7,4.1-1.7c3.1,0,5.3,2.6,5.3,5.8v14.6h23.8V63.7c0-3.2,2.3-5.8,5.4-5.8c1.6,0,2.9,0.6,4.1,1.7    c1.1,1.1,1.7,2.5,1.7,4.1V105c0,1.6-0.6,2.9-1.7,4c-1.2,1.1-2.6,1.7-4.1,1.7c-3.1,0-5.4-2.5-5.4-5.7V89.8h-23.8V105    C305.5,108.2,303.2,110.7,300.1,110.7z M282.3,110.7c-1.6,0-2.9-0.6-4-1.8L259.6,89l-4.1,3.9v12.2c0,1.6-0.5,2.9-1.6,4    c-1.1,1.1-2.4,1.6-3.9,1.6c-1.6,0-2.9-0.6-3.9-1.6c-1.1-1.1-1.7-2.5-1.7-4V63.6c0-1.6,0.6-2.9,1.7-4c1.2-1.1,2.4-1.6,3.9-1.6    c3.1,0,5.4,2.5,5.4,5.6v14L276.3,58c1.1-1.1,2.4-1.6,4.1-1.6c1.5,0.1,2.8,0.7,3.9,1.8c0.9,1,1.4,2.2,1.4,3.7c0,1.6-0.6,3-1.8,4.1    l-16.2,15.3l18.7,19.9c1.1,1.1,1.6,2.4,1.6,4c-0.1,1.5-0.7,2.9-1.7,3.9C285.2,110.2,283.8,110.7,282.3,110.7z M210.9,100.1    c4.2,0,8.1-1.7,10.9-4.6c2.8-2.9,4.4-6.7,4.4-10.9c0-4.3-1.6-8.1-4.4-11c-2.8-2.9-6.7-4.5-10.9-4.5c-4.2,0-8,1.6-10.8,4.5    c-2.9,2.9-4.6,6.8-4.6,11c0,4.2,1.7,8.1,4.6,10.9C202.9,98.4,206.7,100.1,210.9,100.1z M210.9,111.3c-7.2,0-13.8-2.9-18.7-7.8    c-4.9-5-7.8-11.6-7.8-18.9s2.8-13.9,7.8-18.9c4.9-4.9,11.6-7.8,18.7-7.8c7.2,0,13.8,2.9,18.7,7.8c4.9,5,7.7,11.6,7.7,18.9    s-2.8,13.9-7.7,18.9C224.7,108.4,218,111.3,210.9,111.3z M141.7,110.9c-1.5,0-3-0.6-4.1-1.7c-1.1-1.1-1.6-2.4-1.6-3.9    c0-0.7,0.2-1.4,0.4-2.2L155,61.3c0.9-2.1,2.9-3.4,5.2-3.4c2.3,0,4.3,1.2,5.2,3.4l18.4,41.8c0.3,0.7,0.5,1.5,0.5,2.2    c0,0.7-0.2,1.3-0.4,2.1c-0.6,1.4-1.6,2.5-3,3.1c-0.8,0.3-1.5,0.4-2.2,0.4c-1.4,0-2.7-0.6-3.8-1.6c-0.6-0.5-1-1.1-1.3-1.8    l-13.3-33.3l-13.3,33.3c-0.6,1.5-1.6,2.5-3,3.1C143.2,110.8,142.5,110.9,141.7,110.9z"/>
  </defs>
  <clipPath id="SVGID_2_">
    <use xlink:href="#SVGID_1_" style="overflow:visible;"/>
  </clipPath>
  <rect x="121.1" y="41.4" class="st0" width="344" height="84.9"/>
</g>
<path class="st1" d="M423.9,110.7c-3.1,0-5.4-2.5-5.4-5.7V69.1l-15.2-0.1c-3.2,0-5.6-2.2-5.6-5.4c0-3.3,2.4-5.8,5.6-5.8h41.1  c1.6,0,2.9,0.6,4.1,1.7s1.7,2.5,1.7,4.1c0,3.1-2.6,5.4-5.7,5.4h-14.8V105c0,1.6-0.6,2.9-1.7,4C426.7,110.1,425.4,110.7,423.9,110.7z   M372.5,100.1c4.2,0,8.1-1.7,10.9-4.6c2.8-2.9,4.4-6.7,4.4-10.9c0-4.3-1.6-8.1-4.4-11c-2.8-2.9-6.7-4.5-10.9-4.5  c-4.2,0-8,1.6-10.8,4.5c-2.9,2.9-4.6,6.8-4.6,11s1.7,8.1,4.6,10.9C364.5,98.4,368.3,100.1,372.5,100.1z M372.5,111.3  c-7.2,0-13.8-2.9-18.7-7.8c-4.9-5-7.8-11.6-7.8-18.9c0-7.2,2.8-13.9,7.8-18.9c4.9-4.9,11.6-7.8,18.7-7.8s13.8,2.9,18.7,7.8  c4.9,5,7.7,11.6,7.7,18.9c0,7.2-2.8,13.9-7.7,18.9C386.3,108.4,379.7,111.3,372.5,111.3z M300.1,110.7c-1.5,0-2.8-0.6-4-1.7  c-1.1-1.1-1.7-2.3-1.7-4V63.7c0-1.6,0.6-3,1.7-4.1c1.1-1.1,2.4-1.7,4.1-1.7c3.1,0,5.3,2.6,5.3,5.8v14.6h23.8V63.7  c0-3.2,2.3-5.8,5.4-5.8c1.6,0,2.9,0.6,4.1,1.7c1.1,1.1,1.7,2.5,1.7,4.1V105c0,1.6-0.6,2.9-1.7,4c-1.2,1.1-2.6,1.7-4.1,1.7  c-3.1,0-5.4-2.5-5.4-5.7V89.8h-23.8V105C305.5,108.2,303.2,110.7,300.1,110.7z M282.3,110.7c-1.6,0-2.9-0.6-4-1.8L259.6,89l-4.1,3.9  v12.2c0,1.6-0.5,2.9-1.6,4c-1.1,1.1-2.4,1.6-3.9,1.6c-1.6,0-2.9-0.6-3.9-1.6c-1.1-1.1-1.7-2.5-1.7-4V63.6c0-1.6,0.6-2.9,1.7-4  c1.2-1.1,2.4-1.6,3.9-1.6c3.1,0,5.4,2.5,5.4,5.6v14L276.3,58c1.1-1.1,2.4-1.6,4.1-1.6c1.5,0.1,2.8,0.7,3.9,1.8  c0.9,1,1.4,2.2,1.4,3.7c0,1.6-0.6,3-1.8,4.1l-16.2,15.3l18.7,19.9c1.1,1.1,1.6,2.4,1.6,4c-0.1,1.5-0.7,2.9-1.7,3.9  C285.2,110.2,283.8,110.7,282.3,110.7z M210.9,100.1c4.2,0,8.1-1.7,10.9-4.6c2.8-2.9,4.4-6.7,4.4-10.9c0-4.3-1.6-8.1-4.4-11  c-2.8-2.9-6.7-4.5-10.9-4.5c-4.2,0-8,1.6-10.8,4.5c-2.9,2.9-4.6,6.8-4.6,11s1.7,8.1,4.6,10.9C202.9,98.4,206.7,100.1,210.9,100.1z   M210.9,111.3c-7.2,0-13.8-2.9-18.7-7.8c-4.9-5-7.8-11.6-7.8-18.9c0-7.2,2.8-13.9,7.8-18.9c4.9-4.9,11.6-7.8,18.7-7.8  c7.2,0,13.8,2.9,18.7,7.8c4.9,5,7.7,11.6,7.7,18.9c0,7.2-2.8,13.9-7.7,18.9C224.7,108.4,218,111.3,210.9,111.3z M141.7,110.9  c-1.5,0-3-0.6-4.1-1.7c-1.1-1.1-1.6-2.4-1.6-3.9c0-0.7,0.2-1.4,0.4-2.2L155,61.3c0.9-2.1,2.9-3.4,5.2-3.4c2.3,0,4.3,1.2,5.2,3.4  l18.4,41.8c0.3,0.7,0.5,1.5,0.5,2.2c0,0.7-0.2,1.3-0.4,2.1c-0.6,1.4-1.6,2.5-3,3.1c-0.8,0.3-1.5,0.4-2.2,0.4c-1.4,0-2.7-0.6-3.8-1.6  c-0.6-0.5-1-1.1-1.3-1.8l-13.3-33.3l-13.3,33.3c-0.6,1.5-1.6,2.5-3,3.1C143.2,110.8,142.5,110.9,141.7,110.9z"/>
<g>
  <defs>
    <path id="SVGID_3_" d="M511.8,90.9V75.3l-9.9,15.7H511.8z M526.8,92.2c0.8,0.8,1.2,1.8,1.2,3c0,2.3-1.8,4.2-4.1,4.2h-3.7v6.8    c0,2.3-1.8,4.2-4.1,4.2c-1.1,0-2.1-0.4-3-1.2s-1.3-1.8-1.3-2.9v-6.8h-16.3c-1.1,0-2.1-0.4-3-1.2c-0.8-0.8-1.3-1.8-1.3-2.9V95    c0-0.8,0.2-1.5,0.7-2.2L512.4,59c0.8-1.3,2.1-2,3.5-2c1.2,0,2.3,0.5,3.1,1.2c0.7,0.7,1.2,1.9,1.2,3v29.7h3.7    C525.1,90.9,526,91.3,526.8,92.2z M487.1,110.3H460c-1.2,0-2.2-0.4-3-1.3c-0.8-0.9-1.2-1.9-1.2-3.1v-0.4c0-0.1,0-0.3,0-0.3    c0.1-0.7,0.4-1.3,0.8-1.8l0.3-0.3l20.1-21.4l0,0l0.3-0.3c1.5-1.5,2.6-2.9,3.3-3.9c1.3-2,2-3.8,2-5.3c0-2.3-1-4.4-2.6-5.7    c-1.6-1.3-3.8-2.1-6.1-2.1c-2.2,0-4.2,0.7-5.8,1.8c-1.6,1.2-2.7,2.9-3.1,4.9c0,0.2,0,0.4,0,0.5c-0.5,2.3-2,3.5-4,3.5    c-2.6,0-4.1-1.6-4.1-4c0-0.3,0-0.6,0-0.8c0.2-3.3,2-6.7,4.9-9.4c3-2.7,7.1-4.4,11.8-4.4c5,0,9.2,1.4,12.3,4.1    c3.1,2.7,4.8,6.6,4.8,11.2c0,2.7-0.6,5.2-1.7,7.7c-1.2,2.5-3.1,5.1-5.8,7.8L469,102h18.1c2.4,0,4.2,1.8,4.2,4.1    C491.4,108.4,489.5,110.3,487.1,110.3z"/>
  </defs>
  <clipPath id="SVGID_4_">
    <use xlink:href="#SVGID_3_" style="overflow:visible;"/>
  </clipPath>
  <rect x="440.8" y="41.4" class="st2" width="102.2" height="83.8"/>
</g>
<path class="st3" d="M511.8,90.9V75.3l-9.9,15.7H511.8z M526.8,92.2c0.8,0.8,1.2,1.8,1.2,3c0,2.3-1.8,4.2-4.1,4.2h-3.7v6.8  c0,2.3-1.8,4.2-4.1,4.2c-1.1,0-2.1-0.4-3-1.2c-0.8-0.8-1.3-1.8-1.3-2.9v-6.8h-16.3c-1.1,0-2.1-0.4-3-1.2c-0.8-0.8-1.3-1.8-1.3-2.9  V95c0-0.8,0.2-1.5,0.7-2.2L512.4,59c0.8-1.3,2.1-2,3.5-2c1.2,0,2.3,0.5,3.1,1.2c0.7,0.7,1.2,1.9,1.2,3v29.7h3.7  C525.1,90.9,526,91.3,526.8,92.2z M487.1,110.3H460c-1.2,0-2.2-0.4-3-1.3s-1.2-1.9-1.2-3.1v-0.4c0-0.1,0-0.3,0-0.3  c0.1-0.7,0.4-1.3,0.8-1.8l0.3-0.3l20.1-21.4l0,0l0.3-0.3c1.5-1.5,2.6-2.9,3.3-3.9c1.3-2,2-3.8,2-5.3c0-2.3-1-4.4-2.6-5.7  c-1.6-1.3-3.8-2.1-6.1-2.1c-2.2,0-4.2,0.7-5.8,1.8c-1.6,1.2-2.7,2.9-3.1,4.9c0,0.2,0,0.4,0,0.5c-0.5,2.3-2,3.5-4,3.5  c-2.6,0-4.1-1.6-4.1-4c0-0.3,0-0.6,0-0.8c0.2-3.3,2-6.7,4.9-9.4c3-2.7,7.1-4.4,11.8-4.4c5,0,9.2,1.4,12.3,4.1  c3.1,2.7,4.8,6.6,4.8,11.2c0,2.7-0.6,5.2-1.7,7.7c-1.2,2.5-3.1,5.1-5.8,7.8L469,102h18.1c2.4,0,4.2,1.8,4.2,4.1  C491.4,108.4,489.5,110.3,487.1,110.3z"/>
<g>
  <defs>
    <path id="SVGID_5_" d="M162.9,35.4c1.2,1.6,2,3.5,2,5.7c0,5.1-4.1,9.1-9.2,9.1c-4,0-7.4-2.6-8.7-6.1c-9.2-15.4-26-25.7-45.2-25.7    c-22.4,0-41.5,13.9-49.1,33.6c2.9,1.3,4.9,4.1,4.9,7.4c0,4.5-3.6,8.1-8.1,8.1c-0.1,0-0.1,0-0.2,0c0,0-0.1,0-0.1,0    c-1,0-2.4,0-3.4,0c-15.5,0-28,12.5-28,28c0,15.4,12.5,28,28,28c2.9,0,5.7-0.4,8.4-1.3c0.1,0-0.2-0.3-0.8-0.8c-0.8-0.8-2-2-3.1-3.1    c-0.8-0.8-2.1-2.4-2.9-3.4c-0.2-0.3-0.6-0.8-1-1.3c-0.9-1.2-2.1-2.6-2.7-3.4c-2.5-3.6-3.9-5.7-4.7-7.6c0,0,0,0,0,0    c-0.5-1.1-0.8-2.3-0.8-3.6c0-4.9,4-8.9,8.9-8.9c3.8,0,7.1,2.4,8.3,5.7c3.2,5.9,7.5,11.2,12.7,15.5c0.3,0.3,0.5,0.5,0.5,0.4    c9,7.4,20.6,11.8,33.2,11.8c7.6,0,14.9-1.6,21.4-4.5c1.6-1.4,3.6-2.3,5.9-2.3c4.9,0,8.9,4,8.9,8.9c0,4-2.7,7.4-6.3,8.5    c-9.1,4.3-19.2,6.7-29.9,6.7c-11.4,0-22.2-2.7-31.7-7.5c-7.2,5.1-16,8.1-25.6,8.1C19.9,141.1,0,121.2,0,96.7    c0-20.7,14.2-38.1,33.4-43C40.9,22.9,68.6,0,101.8,0C127.9,0,150.7,14.2,162.9,35.4z"/>
  </defs>
  <clipPath id="SVGID_6_">
    <use xlink:href="#SVGID_5_" style="overflow:visible;"/>
  </clipPath>
  <rect x="-15" y="-15" class="st4" width="194.8" height="171.1"/>
</g>
<g>
  <defs>
    <path id="SVGID_7_" d="M92.4,98.9h15.7c3.1,0,5.8-1.2,7.9-3.3c2.1-2.2,3.2-4.9,3.2-7.9c0-3.1-1.2-6-3.2-8    c-2.1-2.1-4.9-3.2-7.9-3.2H92.4V98.9z M108.1,110.8H86.6c-3.4,0-6.1-2.6-6.1-6V40.6c0-2.1,1.1-3.9,2.8-5.1    c0.1-0.1,0.4-0.2,0.8-0.4l0.3-0.1c0.6-0.2,1.2-0.4,2-0.5h32.5c1.6,0,3.2,0.6,4.3,1.7c1.1,1.1,1.7,2.6,1.7,4.2c0,3.3-2.6,5.9-6,5.9    H92.4v19l15.8-0.1c6.3,0,11.9,2.4,16.1,6.7c4.2,4.2,6.6,10,6.6,16.3c0,6.3-2.4,11.9-6.6,16S114.4,110.8,108.1,110.8z"/>
  </defs>
  <clipPath id="SVGID_8_">
    <use xlink:href="#SVGID_7_" style="overflow:visible;"/>
  </clipPath>
  <rect x="65.6" y="19.5" class="st5" width="80.2" height="106.3"/>
</g>
<path class="st1" d="M92.4,98.9h15.7c3.1,0,5.8-1.2,7.9-3.3c2.1-2.2,3.2-4.9,3.2-7.9c0-3.1-1.2-6-3.2-8c-2.1-2.1-4.9-3.2-7.9-3.2  H92.4V98.9z M108.1,110.8H86.6c-3.4,0-6.1-2.6-6.1-6V40.6c0-2.1,1.1-3.9,2.8-5.1c0.1-0.1,0.4-0.2,0.8-0.4l0.3-0.1  c0.6-0.2,1.2-0.4,2-0.5h32.5c1.6,0,3.2,0.6,4.3,1.7c1.1,1.1,1.7,2.6,1.7,4.2c0,3.3-2.6,5.9-6,5.9H92.4v19l15.8-0.1  c6.3,0,11.9,2.4,16.1,6.7c4.2,4.2,6.6,10,6.6,16.3c0,6.3-2.4,11.9-6.6,16C120.1,108.4,114.4,110.8,108.1,110.8z"/>
</svg>
