<svg xmlns="http://www.w3.org/2000/svg" display='none'>
	<defs>
		<symbol id='icon-house' viewBox="0 0 24 24">
			<g id="24-/8-dark" stroke="none" stroke-width="1" fill-rule="evenodd"><path d="M21.7,11.3 L12.7,2.3 C12.3,1.9 11.7,1.9 11.3,2.3 L8,5.6 L8,4 C8,3.4 7.6,3 7,3 C6.4,3 6,3.4 6,4 L6,7.6 L2.3,11.3 C1.9,11.7 1.9,12.3 2.3,12.7 C2.7,13.1 3.3,13.1 3.7,12.7 L4,12.4 L4,21 C4,21.6 4.4,22 5,22 L19,22 C19.6,22 20,21.6 20,21 L20,12.4 L20.3,12.7 C20.5,12.9 20.8,13 21,13 C21.2,13 21.5,12.9 21.7,12.7 C22.1,12.3 22.1,11.7 21.7,11.3 Z M13,20 L11,20 L11,16 L13,16 L13,20 Z M18,20 L15,20 L15,15 C15,14.4 14.6,14 14,14 L10,14 C9.4,14 9,14.4 9,15 L9,20L6,20 L6,10.4 L12,4.4 L18,10.4 L18,20 Z" id="Shape" fill-rule="nonzero"/></g>
		</symbol>

		<symbol id='icon-calls' viewBox="0 0 16 16">
            <g>
                <g transform="translate(-40 -639)">
                    <path id="g5wma" d="M46.667 650.333v1.334H42a1.333  1.333 0 0 1-1.333-1.334V641c0-.736.597-1.333 1.333-1.333h9.333c.737 0 1.334.597 1.334 1.333v4.667h-1.334V641H42v9.333zm-1.334-6.666l2.675 1.996-2.675 1.996zm6 10.666a4 4 0 1 1 0-8 4 4  0 0 1 0 8zm0-1.333a2.667 2.667 0 1 0 0-5.333 2.667 2.667 0 0 0 0 5.333zm-.666-2v-2.667H52v1.334h1.333V651z"/>
                </g>
            </g>
		</symbol>

		<symbol id='icon-fire' viewBox="0 0 24 24">
			
	        <path d="M11.1758045,11.5299649 C11.7222481,10.7630248 11.6612694,9.95529555 11.2823626,8.50234466 C10.5329929,5.62882187 10.8313891,4.05382867 13.4147321,2.18916004 L14.6756139,1.27904986 L14.9805807,2.80388386 C15.3046861,4.42441075 15.8369398,5.42670671 17.2035766,7.35464078 C17.2578735,7.43122022 17.2578735,7.43122022 17.3124108,7.50814226 C19.2809754,10.2854144 20,11.9596204 20,15 C20,18.6883517 16.2713564,22 12,22 C7.72840879,22 4,18.6888043 4,15 C4,14.9310531 4.00007066,14.9331427 3.98838852,14.6284506 C3.89803284,12.2718054 4.33380946,10.4273676 6.09706666,8.43586022 C6.46961415,8.0150872 6.8930834,7.61067534 7.36962714,7.22370749 L8.42161802,6.36945926 L8.9276612,7.62657706 C9.30157948,8.55546878 9.73969716,9.28566491 10.2346078,9.82150804 C10.6537848,10.2753538 10.9647401,10.8460665 11.1758045,11.5299649 Z M7.59448531,9.76165711 C6.23711779,11.2947332 5.91440928,12.6606068 5.98692012,14.5518252 C6.00041903,14.9039019 6,14.8915108 6,15 C6,17.5278878 8.78360021,20 12,20 C15.2161368,20 18,17.527472 18,15 C18,12.4582072 17.4317321,11.1350292 15.6807305,8.66469725 C15.6264803,8.58818014 15.6264803,8.58818014 15.5719336,8.51124844 C14.5085442,7.0111098 13.8746802,5.96758691 13.4553336,4.8005211 C12.7704786,5.62117775 12.8107447,6.43738988 13.2176374,7.99765534 C13.9670071,10.8711781 13.6686109,12.4461713 11.0852679,14.31084 L9.61227259,15.3740546 L9.50184911,13.5607848 C9.43129723,12.4022487 9.16906461,11.6155508 8.76539217,11.178492 C8.36656566,10.7466798 8.00646835,10.2411426 7.68355027,9.66278925 C7.65342985,9.69565638 7.62374254,9.72861259 7.59448531,9.76165711 Z" id="path-1"/>
	        
	        <g id="24-/4-dark" className='pp' stroke="none" stroke-width="1" fill="none" fill-rule="evenodd">
	            <path d="M7.7003584,9.75424155 C6.34299087,11.2873176 6.02028237,12.6531912 6.09279321,14.5444097 C6.10629211,14.8964864 6.10587309,14.8840953 6.10587309,14.9925844 C6.10587309,17.5204722 8.8894733,19.9925844 12.1058731,19.9925844 C15.3220099,19.9925844 18.1058731,17.5200564 18.1058731,14.9925844 C18.1058731,12.4507916 17.5376052,11.1276136 15.7866036,8.65728169 C15.7323534,8.58076458 15.7323534,8.58076458 15.6778067,8.50383288 C14.6144173,7.00369424 13.9805533,5.96017136 13.5612067,4.79310555 C12.8763517,5.61376219 12.9166177,6.42997432 13.3235105,7.99023978 C14.0728802,10.8637626 13.774484,12.4387558 11.191141,14.3034244 L9.71814568,15.3666391 L9.60772219,13.5533693 C9.53717031,12.3948331 9.2749377,11.6081353 8.87126526,11.1710764 C8.47243874,10.7392642 8.11234144,10.2337271 7.78942336,9.65537369 C7.75930294,9.68824082 7.72961563,9.72119703 7.7003584,9.75424155 Z" id="Path" fill="#FF9900" fill-rule="nonzero" transform="translate(12.094567, 12.392845) translate(-12.094567, -12.392845) "/>
	            <mask id="mask-2" fill="white">
	                <use xlinkHref="#path-1"/>
	            </mask>
	            <use id="Oval-12" fill="#FF6C02" fill-rule="nonzero" transform="translate(11.988607, 11.639525) translate(-11.988607, -11.639525)" xlinkHref="#path-1"/>
	        </g>
		</symbol>
		
		<symbol id='arrow-up' viewBox="0 0 10 7">
			<g>
				<g transform="translate(-112 -783)">
					<path id="7184a" d="M121.24 788.057a.8.8 0 0 0-.223-.553l-3.827-3.957a.77.77 0 0 0-.536-.225c-.2 0-.394.085-.53.225l-3.832 3.957a.8.8 0 0 0-.224.553c0 .207.082.408.224.547l.441.456c.136.146.33.231.53.231s.394-.085.53-.23l2.861-2.949 2.861 2.948a.728.728 0 0 0 1.066 0l.441-.456a.796.796 0 0 0 .218-.547z"/>
				</g>
			</g>
		</symbol>

		<symbol id='menu-btn-icon' viewBox="0 0 512 512">
			<g>
				<g>
					<path d="M176.792,0H59.208C26.561,0,0,26.561,0,59.208v117.584C0,209.439,26.561,236,59.208,236h117.584
						C209.439,236,236,209.439,236,176.792V59.208C236,26.561,209.439,0,176.792,0z M196,176.792c0,10.591-8.617,19.208-19.208,19.208
						H59.208C48.617,196,40,187.383,40,176.792V59.208C40,48.617,48.617,40,59.208,40h117.584C187.383,40,196,48.617,196,59.208
						V176.792z"/>
				</g>
			</g>
			<g>
				<g>
					<path d="M452,0H336c-33.084,0-60,26.916-60,60v116c0,33.084,26.916,60,60,60h116c33.084,0,60-26.916,60-60V60
						C512,26.916,485.084,0,452,0z M472,176c0,11.028-8.972,20-20,20H336c-11.028,0-20-8.972-20-20V60c0-11.028,8.972-20,20-20h116
						c11.028,0,20,8.972,20,20V176z"/>
				</g>
			</g>
			<g>
				<g>
					<path d="M176.792,276H59.208C26.561,276,0,302.561,0,335.208v117.584C0,485.439,26.561,512,59.208,512h117.584
						C209.439,512,236,485.439,236,452.792V335.208C236,302.561,209.439,276,176.792,276z M196,452.792
						c0,10.591-8.617,19.208-19.208,19.208H59.208C48.617,472,40,463.383,40,452.792V335.208C40,324.617,48.617,316,59.208,316h117.584
						c10.591,0,19.208,8.617,19.208,19.208V452.792z"/>
				</g>
			</g>
			<g>
				<g>
					<path d="M452,276H336c-33.084,0-60,26.916-60,60v116c0,33.084,26.916,60,60,60h116c33.084,0,60-26.916,60-60V336
						C512,302.916,485.084,276,452,276z M472,452c0,11.028-8.972,20-20,20H336c-11.028,0-20-8.972-20-20V336c0-11.028,8.972-20,20-20
						h116c11.028,0,20,8.972,20,20V452z"/>
				</g>
			</g>
		</symbol>
	</defs>

</svg>