<svg xmlns="http://www.w3.org/2000/svg" xmlns:xlink="http://www.w3.org/1999/xlink" width="10" height="7" viewBox="0 0 10 7"><defs><path id="7184a" d="M121.24 788.057a.8.8 0 0 0-.223-.553l-3.827-3.957a.77.77 0 0 0-.536-.225c-.2 0-.394.085-.53.225l-3.832 3.957a.8.8 0 0 0-.224.553c0 .207.082.408.224.547l.441.456c.136.146.33.231.53.231s.394-.085.53-.23l2.861-2.949 2.861 2.948a.728.728 0 0 0 1.066 0l.441-.456a.796.796 0 0 0 .218-.547z"/></defs><g><g transform="translate(-112 -783)"><use fill="#748aa1" xlink:href="#7184a"/></g></g></svg>