<svg xmlns="http://www.w3.org/2000/svg" xmlnsXlink="http://www.w3.org/1999/xlink" width="16" height="16" viewBox="0 0 16 16"><defs><path id="g5wma" d="M46.667 650.333v1.334H42a1.333  1.333 0 0 1-1.333-1.334V641c0-.736.597-1.333 1.333-1.333h9.333c.737 0 1.334.597 1.334 1.333v4.667h-1.334V641H42v9.333zm-1.334-6.666l2.675 1.996-2.675 1.996zm6 10.666a4 4 0 1 1 0-8 4 4  0 0 1 0 8zm0-1.333a2.667 2.667 0 1 0 0-5.333 2.667 2.667 0 0 0 0 5.333zm-.666-2v-2.667H52v1.334h1.333V651z"/></defs><g><g transform="translate(-40 -639)"><use fill="#b8c5d3" xlinkHref="#g5wma"/></g></g></svg>