<svg xmlns="http://www.w3.org/2000/svg" xmlnsXlink="http://www.w3.org/1999/xlink" width="16px" height="16px" viewBox="0 0 24 24" version="1.1"><g id="24-/8-dark" stroke="none" stroke-width="1" fill="none" fill-rule="evenodd"><path d="M21.7,11.3 L12.7,2.3 C12.3,1.9 11.7,1.9 11.3,2.3 L8,5.6 L8,4 C8,3.4 7.6,3 7,3 C6.4,3 6,3.4 6,4 L6,7.6 L2.3,11.3 C1.9,11.7 1.9,12.3 2.3,12.7 C2.7,13.1 3.3,13.1 3.7,12.7 L4,12.4 L4,21 C4,21.6 4.4,22 5,22 L19,22 C19.6,22 20,21.6 20,21 L20,12.4 L20.3,12.7 C20.5,12.9 20.8,13 21,13 C21.2,13 21.5,12.9 21.7,12.7 C22.1,12.3 22.1,11.7 21.7,11.3 Z M13,20 L11,20 L11,16 L13,16 L13,20 Z M18,20 L15,20 L15,15 C15,14.4 14.6,14 14,14 L10,14 C9.4,14 9,14.4 9,15 L9,20L6,20 L6,10.4 L12,4.4 L18,10.4 L18,20 Z" id="Shape" fill="#748AA1" fill-rule="nonzero"/></g></svg>