<svg xmlns="http://www.w3.org/2000/svg" xmlns:xlink="http://www.w3.org/1999/xlink" width="14" height="13" viewBox="0 0 14 13"><defs><path id="v36na" d="M818.289 506.81c-.256.14-.547.22-.85.22v-1.195c.12 0 .231-.03.341-.089.109-.06.215-.15.309-.27.187-.24.319-.598.318-1.006 0-.306-.073-.584-.19-.805a1.118 1.118 0 0 0-.437-.471.71.71 0 0 0-.34-.09v-1.194c.302 0 .593.08.849.22.256.139.479.336.662.57.365.471.575 1.094.576 1.77 0 .507-.12.984-.332 1.39a2.27 2.27 0 0 1-.906.95zm3.711-2.34a5.904 5.904 0 0 1-.702 2.83c-.446.814-1.083 1.473-1.85 1.874a3.598 3.598 0 0 1-1.671.416v-1.195c.418 0 .813-.104 1.18-.295a3.17 3.17 0 0 0 .986-.823c.572-.704.937-1.698.937-2.807 0-.832-.205-1.599-.55-2.227-.344-.63-.825-1.117-1.374-1.403a2.528 2.528 0 0 0-1.18-.295v-1.195c.594 0 1.162.15 1.673.416.51.267.964.65 1.342 1.116.754.932 1.208 2.2 1.209 3.588zm-14 2.65v-4.95h2.56v4.95zm3.36-4.954l4.8-4.096v12.8l-4.8-3.755z"/></defs><g><g transform="translate(-808 -498)"><use fill="#748aa1" xlink:href="#v36na"/></g></g></svg>