<svg xmlns="http://www.w3.org/2000/svg" xmlns:xlink="http://www.w3.org/1999/xlink" width="16" height="16" viewBox="0 0 16 16"><defs><path id="1c7va" d="M1467.546 170.177l-2.459-1.954a1.192 1.192 0 0 0-1.65.169c-.438.505-.742.842-.826.943-.758.758-2.324-.32-3.958-1.97-1.651-1.652-2.729-3.218-1.971-3.976.084-.084.421-.388.943-.825a1.208 1.208 0 0 0 .169-1.651l-1.971-2.46a1.201 1.201 0 0 0-1.415-.353c-.674.286-1.348.775-1.668 1.095-1.785 1.768-.252 6.535 3.639 10.426 3.89 3.891 8.658 5.424 10.426 3.639.32-.32.809-1.011 1.095-1.668a1.195 1.195 0 0 0-.354-1.415z"/><path id="1c7vb" d="M1465.423 159.78a.733.733 0 0 0-.56.242l-2.371 2.372v-.544c0-.438-.363-.8-.801-.8-.438 0-.801.362-.801.8v2.463c0 .438.363.8.8.8h2.479c.438 0 .8-.362.8-.8 0-.439-.362-.801-.8-.801h-.544l2.372-2.372c.302-.302.302-.816 0-1.133a.837.837 0 0 0-.574-.227z"/></defs><g><g transform="translate(-1452 -158)"><use fill="#649936" xlink:href="#1c7va"/></g><g transform="translate(-1452 -158)"><use fill="#649936" xlink:href="#1c7vb"/></g></g></svg>