<svg xmlns="http://www.w3.org/2000/svg" xmlns:xlink="http://www.w3.org/1999/xlink" width="15" height="15" viewBox="0 0 15 15"><defs><path id="xyhva" d="M1466.575 257.416l-2.306-1.832a1.117 1.117 0 0 0-1.547.158c-.41.474-.695.79-.774.884-.71.711-2.18-.3-3.711-1.847-1.548-1.548-2.558-3.016-1.848-3.727.08-.079.395-.363.885-.774a1.132 1.132 0 0 0 .158-1.547l-1.848-2.306a1.126 1.126 0 0 0-1.327-.331c-.631.268-1.263.726-1.563 1.026-1.674 1.658-.237 6.127 3.411 9.775 3.648 3.648 8.117 5.085 9.775 3.41.3-.3.758-.947 1.026-1.562a1.12 1.12 0 0 0-.331-1.327z"/><path id="xyhvb" d="M1464.452 249.21v.494c0 .398.329.727.727.727.398 0 .728-.33.728-.727v-2.237a.732.732 0 0 0-.728-.727h-2.251a.732.732 0 0 0-.728.727c0 .398.33.728.728.728h1.524z"/><path id="xyhvc" d="M1462.242 251.46v.494c0 .398.329.727.727.727.398 0 .728-.33.728-.727v-2.237a.732.732 0 0 0-.728-.727h-2.251a.732.732 0 0 0-.728.727c0 .398.33.728.728.728h1.524z"/></defs><g><g transform="translate(-1452 -246)"><use fill="#ee423d" xlink:href="#xyhva"/></g><g transform="rotate(-180 738 126.5)"><use fill="#ee423d" xlink:href="#xyhvb"/></g><g transform="translate(-1452 -246)"><use fill="#ee423d" xlink:href="#xyhvc"/></g></g></svg>