<svg xmlns="http://www.w3.org/2000/svg" xmlns:xlink="http://www.w3.org/1999/xlink" width="16" height="16" viewBox="0 0 16 16"><defs><path id="yiola" d="M1467.546 213.177l-2.459-1.954a1.192 1.192 0 0 0-1.65.169c-.438.505-.742.842-.826.943-.758.758-2.324-.32-3.958-1.97-1.651-1.652-2.729-3.218-1.971-3.976.084-.084.421-.388.943-.825a1.208 1.208 0 0 0 .169-1.651l-1.971-2.46a1.201 1.201 0 0 0-1.415-.353c-.674.286-1.348.775-1.668 1.095-1.785 1.768-.252 6.535 3.639 10.426 3.89 3.891 8.658 5.424 10.426 3.639.32-.32.809-1.011 1.095-1.668a1.195 1.195 0 0 0-.354-1.415z"/><path id="yiolb" d="M1461.69 208.113a.733.733 0 0 0 .56-.241l2.372-2.372v.543c0 .439.362.801.8.801.439 0 .801-.362.801-.8v-2.463c0-.438-.362-.801-.8-.801h-2.478c-.438 0-.801.363-.801.8 0 .439.363.802.8.802h.545l-2.372 2.372c-.303.302-.303.815 0 1.133a.837.837 0 0 0 .574.226z"/></defs><g><g transform="translate(-1452 -201)"><use fill="#1f8efa" xlink:href="#yiola"/></g><g transform="translate(-1452 -201)"><use fill="#1f8efa" xlink:href="#yiolb"/></g></g></svg>